<svg width="746" height="200" viewBox="0 0 746 200" fill="none" xmlns="http://www.w3.org/2000/svg">
<line x1="1.5" y1="11" x2="744.5" y2="11" stroke="#F2F4F7" stroke-linecap="round"/>
<line x1="1.5" y1="45.5" x2="744.5" y2="45.5" stroke="#F2F4F7" stroke-linecap="round"/>
<line x1="1.5" y1="77.5" x2="744.5" y2="77.5" stroke="#F2F4F7" stroke-linecap="round"/>
<line x1="1.5" y1="109.5" x2="744.5" y2="109.5" stroke="#F2F4F7" stroke-linecap="round"/>
<line x1="1.5" y1="141.5" x2="744.5" y2="141.5" stroke="#F2F4F7" stroke-linecap="round"/>
<line x1="1.5" y1="173.5" x2="744.5" y2="173.5" stroke="#F2F4F7" stroke-linecap="round"/>
<path d="M29.7493 186.273H30.8061V192.511C30.8061 193.068 30.7038 193.541 30.4993 193.93C30.2947 194.32 30.0064 194.615 29.6342 194.817C29.2621 195.018 28.8232 195.119 28.3175 195.119C27.8402 195.119 27.4155 195.033 27.0433 194.859C26.6712 194.683 26.3786 194.433 26.1655 194.109C25.9524 193.786 25.8459 193.401 25.8459 192.955H26.8857C26.8857 193.202 26.9467 193.418 27.0689 193.602C27.1939 193.784 27.3643 193.926 27.5803 194.028C27.7962 194.131 28.0419 194.182 28.3175 194.182C28.6214 194.182 28.88 194.118 29.093 193.99C29.3061 193.862 29.468 193.675 29.5788 193.428C29.6925 193.178 29.7493 192.872 29.7493 192.511V186.273ZM34.7138 195.153C34.299 195.153 33.9226 195.075 33.5845 194.919C33.2464 194.76 32.978 194.531 32.7791 194.233C32.5803 193.932 32.4808 193.568 32.4808 193.142C32.4808 192.767 32.5547 192.463 32.7024 192.23C32.8501 191.994 33.0476 191.81 33.2947 191.676C33.5419 191.543 33.8146 191.443 34.1129 191.378C34.4141 191.31 34.7166 191.256 35.0206 191.216C35.4183 191.165 35.7408 191.126 35.9879 191.101C36.2379 191.072 36.4197 191.026 36.5334 190.96C36.6499 190.895 36.7081 190.781 36.7081 190.619V190.585C36.7081 190.165 36.593 189.838 36.3629 189.605C36.1357 189.372 35.7905 189.256 35.3274 189.256C34.8473 189.256 34.4709 189.361 34.1982 189.571C33.9254 189.781 33.7337 190.006 33.6229 190.244L32.6683 189.903C32.8388 189.506 33.0661 189.196 33.3501 188.974C33.6371 188.75 33.9496 188.594 34.2876 188.506C34.6286 188.415 34.9638 188.369 35.2933 188.369C35.5036 188.369 35.745 188.395 36.0178 188.446C36.2933 188.494 36.5589 188.595 36.8146 188.749C37.0732 188.902 37.2876 189.134 37.4581 189.443C37.6286 189.753 37.7138 190.168 37.7138 190.688V195H36.7081V194.114H36.657C36.5888 194.256 36.4751 194.408 36.3161 194.57C36.157 194.732 35.9453 194.869 35.6811 194.983C35.4169 195.097 35.0945 195.153 34.7138 195.153ZM34.8672 194.25C35.2649 194.25 35.6001 194.172 35.8729 194.016C36.1484 193.859 36.3558 193.658 36.495 193.411C36.6371 193.163 36.7081 192.903 36.7081 192.631V191.71C36.6655 191.761 36.5717 191.808 36.4268 191.851C36.2848 191.891 36.12 191.926 35.9325 191.957C35.7479 191.986 35.5675 192.011 35.3913 192.034C35.218 192.054 35.0774 192.071 34.9695 192.085C34.7081 192.119 34.4638 192.175 34.2365 192.251C34.0121 192.325 33.8303 192.437 33.6911 192.588C33.5547 192.736 33.4865 192.937 33.4865 193.193C33.4865 193.543 33.6158 193.807 33.8743 193.986C34.1357 194.162 34.4666 194.25 34.8672 194.25ZM40.555 191.062V195H39.5494V188.455H40.521V189.477H40.6062C40.7596 189.145 40.9925 188.878 41.305 188.676C41.6175 188.472 42.021 188.369 42.5153 188.369C42.9585 188.369 43.3462 188.46 43.6786 188.642C44.011 188.821 44.2695 189.094 44.4542 189.46C44.6388 189.824 44.7312 190.284 44.7312 190.841V195H43.7255V190.909C43.7255 190.395 43.592 189.994 43.3249 189.707C43.0579 189.418 42.6914 189.273 42.2255 189.273C41.9045 189.273 41.6175 189.342 41.3647 189.482C41.1147 189.621 40.9173 189.824 40.7724 190.091C40.6275 190.358 40.555 190.682 40.555 191.062Z" fill="#667085"/>
<path d="M86.875 195V186.273H92.1079V187.21H87.9318V190.159H91.7159V191.097H87.9318V195H86.875ZM96.0454 195.136C95.4148 195.136 94.8707 194.997 94.4133 194.719C93.9588 194.438 93.6079 194.045 93.3608 193.543C93.1165 193.037 92.9943 192.449 92.9943 191.778C92.9943 191.108 93.1165 190.517 93.3608 190.006C93.6079 189.491 93.9517 189.091 94.392 188.804C94.8352 188.514 95.3523 188.369 95.9432 188.369C96.2841 188.369 96.6207 188.426 96.9531 188.54C97.2855 188.653 97.5881 188.838 97.8608 189.094C98.1335 189.347 98.3508 189.682 98.5128 190.099C98.6747 190.517 98.7557 191.031 98.7557 191.642V192.068H93.7102V191.199H97.7329C97.7329 190.83 97.6591 190.5 97.5114 190.21C97.3665 189.92 97.1591 189.692 96.8892 189.524C96.6222 189.357 96.3068 189.273 95.9432 189.273C95.5426 189.273 95.196 189.372 94.9034 189.571C94.6136 189.767 94.3906 190.023 94.2344 190.338C94.0781 190.653 94 190.991 94 191.352V191.932C94 192.426 94.0852 192.845 94.2557 193.189C94.429 193.53 94.669 193.79 94.9758 193.969C95.2827 194.145 95.6392 194.233 96.0454 194.233C96.3097 194.233 96.5483 194.196 96.7614 194.122C96.9773 194.045 97.1633 193.932 97.3196 193.781C97.4758 193.628 97.5966 193.437 97.6818 193.21L98.6534 193.483C98.5511 193.812 98.3793 194.102 98.1378 194.352C97.8963 194.599 97.598 194.793 97.2429 194.932C96.8878 195.068 96.4886 195.136 96.0454 195.136ZM100.422 195V186.273H101.428V189.494H101.513C101.587 189.381 101.689 189.236 101.82 189.06C101.953 188.881 102.143 188.722 102.391 188.582C102.641 188.44 102.979 188.369 103.405 188.369C103.956 188.369 104.442 188.507 104.862 188.783C105.283 189.058 105.611 189.449 105.847 189.955C106.082 190.46 106.2 191.057 106.2 191.744C106.2 192.438 106.082 193.038 105.847 193.547C105.611 194.053 105.284 194.445 104.866 194.723C104.449 194.999 103.967 195.136 103.422 195.136C103.001 195.136 102.665 195.067 102.412 194.928C102.159 194.786 101.964 194.625 101.828 194.446C101.692 194.264 101.587 194.114 101.513 193.994H101.393V195H100.422ZM101.411 191.727C101.411 192.222 101.483 192.658 101.628 193.036C101.773 193.411 101.984 193.705 102.263 193.918C102.541 194.128 102.882 194.233 103.286 194.233C103.706 194.233 104.057 194.122 104.338 193.901C104.622 193.676 104.835 193.375 104.977 192.997C105.122 192.616 105.195 192.193 105.195 191.727C105.195 191.267 105.124 190.852 104.982 190.483C104.842 190.111 104.631 189.817 104.347 189.601C104.065 189.382 103.712 189.273 103.286 189.273C102.876 189.273 102.533 189.376 102.254 189.584C101.976 189.788 101.766 190.075 101.624 190.445C101.482 190.811 101.411 191.239 101.411 191.727Z" fill="#667085"/>
<path d="M147.742 186.273H149.003L151.969 193.517H152.072L155.037 186.273H156.299V195H155.31V188.369H155.225L152.498 195H151.543L148.816 188.369H148.731V195H147.742V186.273ZM160.208 195.153C159.793 195.153 159.416 195.075 159.078 194.919C158.74 194.76 158.472 194.531 158.273 194.233C158.074 193.932 157.975 193.568 157.975 193.142C157.975 192.767 158.048 192.463 158.196 192.23C158.344 191.994 158.541 191.81 158.789 191.676C159.036 191.543 159.308 191.443 159.607 191.378C159.908 191.31 160.21 191.256 160.514 191.216C160.912 191.165 161.235 191.126 161.482 191.101C161.732 191.072 161.914 191.026 162.027 190.96C162.144 190.895 162.202 190.781 162.202 190.619V190.585C162.202 190.165 162.087 189.838 161.857 189.605C161.629 189.372 161.284 189.256 160.821 189.256C160.341 189.256 159.965 189.361 159.692 189.571C159.419 189.781 159.227 190.006 159.117 190.244L158.162 189.903C158.333 189.506 158.56 189.196 158.844 188.974C159.131 188.75 159.443 188.594 159.781 188.506C160.122 188.415 160.458 188.369 160.787 188.369C160.997 188.369 161.239 188.395 161.512 188.446C161.787 188.494 162.053 188.595 162.308 188.749C162.567 188.902 162.781 189.134 162.952 189.443C163.122 189.753 163.208 190.168 163.208 190.688V195H162.202V194.114H162.151C162.083 194.256 161.969 194.408 161.81 194.57C161.651 194.732 161.439 194.869 161.175 194.983C160.911 195.097 160.588 195.153 160.208 195.153ZM160.361 194.25C160.759 194.25 161.094 194.172 161.367 194.016C161.642 193.859 161.85 193.658 161.989 193.411C162.131 193.163 162.202 192.903 162.202 192.631V191.71C162.159 191.761 162.066 191.808 161.921 191.851C161.779 191.891 161.614 191.926 161.426 191.957C161.242 191.986 161.061 192.011 160.885 192.034C160.712 192.054 160.571 192.071 160.463 192.085C160.202 192.119 159.958 192.175 159.73 192.251C159.506 192.325 159.324 192.437 159.185 192.588C159.048 192.736 158.98 192.937 158.98 193.193C158.98 193.543 159.11 193.807 159.368 193.986C159.629 194.162 159.96 194.25 160.361 194.25ZM165.043 195V188.455H166.015V189.443H166.083C166.202 189.119 166.418 188.857 166.731 188.655C167.043 188.453 167.395 188.352 167.787 188.352C167.861 188.352 167.954 188.354 168.064 188.357C168.175 188.359 168.259 188.364 168.316 188.369V189.392C168.282 189.384 168.204 189.371 168.081 189.354C167.962 189.334 167.836 189.324 167.702 189.324C167.384 189.324 167.1 189.391 166.85 189.524C166.603 189.655 166.407 189.837 166.262 190.07C166.12 190.3 166.049 190.562 166.049 190.858V195H165.043Z" fill="#667085"/>
<path d="M209.926 195H208.818L212.023 186.273H213.113L216.318 195H215.21L212.602 187.653H212.534L209.926 195ZM210.335 191.591H214.801V192.528H210.335V191.591ZM217.541 197.455V188.455H218.513V189.494H218.632C218.706 189.381 218.808 189.236 218.939 189.06C219.072 188.881 219.263 188.722 219.51 188.582C219.76 188.44 220.098 188.369 220.524 188.369C221.075 188.369 221.561 188.507 221.981 188.783C222.402 189.058 222.73 189.449 222.966 189.955C223.202 190.46 223.319 191.057 223.319 191.744C223.319 192.438 223.202 193.038 222.966 193.547C222.73 194.053 222.403 194.445 221.986 194.723C221.568 194.999 221.086 195.136 220.541 195.136C220.121 195.136 219.784 195.067 219.531 194.928C219.278 194.786 219.084 194.625 218.947 194.446C218.811 194.264 218.706 194.114 218.632 193.994H218.547V197.455H217.541ZM218.53 191.727C218.53 192.222 218.602 192.658 218.747 193.036C218.892 193.411 219.103 193.705 219.382 193.918C219.66 194.128 220.001 194.233 220.405 194.233C220.825 194.233 221.176 194.122 221.457 193.901C221.741 193.676 221.954 193.375 222.096 192.997C222.241 192.616 222.314 192.193 222.314 191.727C222.314 191.267 222.243 190.852 222.101 190.483C221.961 190.111 221.75 189.817 221.466 189.601C221.184 189.382 220.831 189.273 220.405 189.273C219.996 189.273 219.652 189.376 219.373 189.584C219.095 189.788 218.885 190.075 218.743 190.445C218.601 190.811 218.53 191.239 218.53 191.727ZM224.853 195V188.455H225.825V189.443H225.893C226.013 189.119 226.228 188.857 226.541 188.655C226.853 188.453 227.206 188.352 227.598 188.352C227.672 188.352 227.764 188.354 227.875 188.357C227.986 188.359 228.069 188.364 228.126 188.369V189.392C228.092 189.384 228.014 189.371 227.892 189.354C227.773 189.334 227.646 189.324 227.513 189.324C227.194 189.324 226.91 189.391 226.66 189.524C226.413 189.655 226.217 189.837 226.072 190.07C225.93 190.3 225.859 190.562 225.859 190.858V195H224.853Z" fill="#667085"/>
<path d="M269.388 186.273H270.649L273.615 193.517H273.718L276.684 186.273H277.945V195H276.956V188.369H276.871L274.144 195H273.189L270.462 188.369H270.377V195H269.388V186.273ZM281.854 195.153C281.439 195.153 281.062 195.075 280.724 194.919C280.386 194.76 280.118 194.531 279.919 194.233C279.72 193.932 279.621 193.568 279.621 193.142C279.621 192.767 279.695 192.463 279.842 192.23C279.99 191.994 280.187 191.81 280.435 191.676C280.682 191.543 280.955 191.443 281.253 191.378C281.554 191.31 281.857 191.256 282.16 191.216C282.558 191.165 282.881 191.126 283.128 191.101C283.378 191.072 283.56 191.026 283.673 190.96C283.79 190.895 283.848 190.781 283.848 190.619V190.585C283.848 190.165 283.733 189.838 283.503 189.605C283.276 189.372 282.93 189.256 282.467 189.256C281.987 189.256 281.611 189.361 281.338 189.571C281.065 189.781 280.874 190.006 280.763 190.244L279.808 189.903C279.979 189.506 280.206 189.196 280.49 188.974C280.777 188.75 281.089 188.594 281.428 188.506C281.768 188.415 282.104 188.369 282.433 188.369C282.643 188.369 282.885 188.395 283.158 188.446C283.433 188.494 283.699 188.595 283.955 188.749C284.213 188.902 284.428 189.134 284.598 189.443C284.768 189.753 284.854 190.168 284.854 190.688V195H283.848V194.114H283.797C283.729 194.256 283.615 194.408 283.456 194.57C283.297 194.732 283.085 194.869 282.821 194.983C282.557 195.097 282.234 195.153 281.854 195.153ZM282.007 194.25C282.405 194.25 282.74 194.172 283.013 194.016C283.288 193.859 283.496 193.658 283.635 193.411C283.777 193.163 283.848 192.903 283.848 192.631V191.71C283.805 191.761 283.712 191.808 283.567 191.851C283.425 191.891 283.26 191.926 283.072 191.957C282.888 191.986 282.707 192.011 282.531 192.034C282.358 192.054 282.217 192.071 282.109 192.085C281.848 192.119 281.604 192.175 281.376 192.251C281.152 192.325 280.97 192.437 280.831 192.588C280.695 192.736 280.626 192.937 280.626 193.193C280.626 193.543 280.756 193.807 281.014 193.986C281.276 194.162 281.607 194.25 282.007 194.25ZM287.103 197.455C286.932 197.455 286.78 197.44 286.647 197.412C286.513 197.386 286.421 197.361 286.37 197.335L286.625 196.449C286.87 196.511 287.086 196.534 287.273 196.517C287.461 196.5 287.627 196.416 287.772 196.266C287.919 196.118 288.054 195.878 288.176 195.545L288.364 195.034L285.944 188.455H287.034L288.841 193.67H288.909L290.716 188.455H291.807L289.029 195.955C288.904 196.293 288.749 196.572 288.564 196.794C288.38 197.018 288.165 197.185 287.921 197.293C287.679 197.401 287.407 197.455 287.103 197.455Z" fill="#667085"/>
<path d="M336.735 186.273H337.792V192.511C337.792 193.068 337.689 193.541 337.485 193.93C337.28 194.32 336.992 194.615 336.62 194.817C336.247 195.018 335.809 195.119 335.303 195.119C334.826 195.119 334.401 195.033 334.029 194.859C333.657 194.683 333.364 194.433 333.151 194.109C332.938 193.786 332.831 193.401 332.831 192.955H333.871C333.871 193.202 333.932 193.418 334.054 193.602C334.179 193.784 334.35 193.926 334.566 194.028C334.782 194.131 335.027 194.182 335.303 194.182C335.607 194.182 335.865 194.118 336.078 193.99C336.292 193.862 336.453 193.675 336.564 193.428C336.678 193.178 336.735 192.872 336.735 192.511V186.273ZM343.898 192.324V188.455H344.904V195H343.898V193.892H343.83C343.676 194.224 343.438 194.507 343.114 194.74C342.79 194.97 342.381 195.085 341.887 195.085C341.478 195.085 341.114 194.996 340.796 194.817C340.478 194.635 340.228 194.362 340.046 193.999C339.864 193.632 339.773 193.17 339.773 192.614V188.455H340.779V192.545C340.779 193.023 340.912 193.403 341.179 193.688C341.449 193.972 341.793 194.114 342.211 194.114C342.461 194.114 342.715 194.05 342.973 193.922C343.235 193.794 343.453 193.598 343.63 193.334C343.809 193.07 343.898 192.733 343.898 192.324ZM347.751 191.062V195H346.746V188.455H347.717V189.477H347.803C347.956 189.145 348.189 188.878 348.501 188.676C348.814 188.472 349.217 188.369 349.712 188.369C350.155 188.369 350.543 188.46 350.875 188.642C351.207 188.821 351.466 189.094 351.651 189.46C351.835 189.824 351.928 190.284 351.928 190.841V195H350.922V190.909C350.922 190.395 350.788 189.994 350.521 189.707C350.254 189.418 349.888 189.273 349.422 189.273C349.101 189.273 348.814 189.342 348.561 189.482C348.311 189.621 348.114 189.824 347.969 190.091C347.824 190.358 347.751 190.682 347.751 191.062Z" fill="#667085"/>
<path d="M397.639 186.273H398.696V192.511C398.696 193.068 398.593 193.541 398.389 193.93C398.184 194.32 397.896 194.615 397.524 194.817C397.152 195.018 396.713 195.119 396.207 195.119C395.73 195.119 395.305 195.033 394.933 194.859C394.561 194.683 394.268 194.433 394.055 194.109C393.842 193.786 393.735 193.401 393.735 192.955H394.775C394.775 193.202 394.836 193.418 394.958 193.602C395.083 193.784 395.254 193.926 395.47 194.028C395.686 194.131 395.931 194.182 396.207 194.182C396.511 194.182 396.769 194.118 396.983 193.99C397.196 193.862 397.358 193.675 397.468 193.428C397.582 193.178 397.639 192.872 397.639 192.511V186.273ZM404.802 192.324V188.455H405.808V195H404.802V193.892H404.734C404.581 194.224 404.342 194.507 404.018 194.74C403.694 194.97 403.285 195.085 402.791 195.085C402.382 195.085 402.018 194.996 401.7 194.817C401.382 194.635 401.132 194.362 400.95 193.999C400.768 193.632 400.677 193.17 400.677 192.614V188.455H401.683V192.545C401.683 193.023 401.816 193.403 402.083 193.688C402.353 193.972 402.697 194.114 403.115 194.114C403.365 194.114 403.619 194.05 403.877 193.922C404.139 193.794 404.358 193.598 404.534 193.334C404.713 193.07 404.802 192.733 404.802 192.324ZM408.656 186.273V195H407.65V186.273H408.656Z" fill="#667085"/>
<path d="M451.445 195H450.337L453.541 186.273H454.632L457.837 195H456.729L454.121 187.653H454.053L451.445 195ZM451.854 191.591H456.32V192.528H451.854V191.591ZM463.185 192.324V188.455H464.19V195H463.185V193.892H463.117C462.963 194.224 462.725 194.507 462.401 194.74C462.077 194.97 461.668 195.085 461.173 195.085C460.764 195.085 460.401 194.996 460.083 194.817C459.764 194.635 459.514 194.362 459.333 193.999C459.151 193.632 459.06 193.17 459.06 192.614V188.455H460.065V192.545C460.065 193.023 460.199 193.403 460.466 193.688C460.736 193.972 461.08 194.114 461.497 194.114C461.747 194.114 462.002 194.05 462.26 193.922C462.521 193.794 462.74 193.598 462.916 193.334C463.095 193.07 463.185 192.733 463.185 192.324ZM468.674 197.591C468.189 197.591 467.771 197.528 467.422 197.403C467.072 197.281 466.781 197.119 466.548 196.918C466.318 196.719 466.135 196.506 465.998 196.278L466.799 195.716C466.89 195.835 467.005 195.972 467.145 196.125C467.284 196.281 467.474 196.416 467.716 196.53C467.96 196.646 468.28 196.705 468.674 196.705C469.203 196.705 469.639 196.577 469.983 196.321C470.326 196.065 470.498 195.665 470.498 195.119V193.79H470.413C470.339 193.909 470.234 194.057 470.098 194.233C469.964 194.406 469.771 194.561 469.518 194.697C469.268 194.831 468.93 194.898 468.504 194.898C467.976 194.898 467.501 194.773 467.081 194.523C466.663 194.273 466.332 193.909 466.088 193.432C465.846 192.955 465.726 192.375 465.726 191.693C465.726 191.023 465.844 190.439 466.079 189.942C466.315 189.442 466.643 189.055 467.064 188.783C467.484 188.507 467.97 188.369 468.521 188.369C468.947 188.369 469.285 188.44 469.535 188.582C469.788 188.722 469.981 188.881 470.115 189.06C470.251 189.236 470.356 189.381 470.43 189.494H470.532V188.455H471.504V195.188C471.504 195.75 471.376 196.207 471.121 196.56C470.868 196.915 470.527 197.175 470.098 197.339C469.672 197.507 469.197 197.591 468.674 197.591ZM468.64 193.994C469.044 193.994 469.385 193.902 469.663 193.717C469.942 193.533 470.153 193.267 470.298 192.92C470.443 192.574 470.515 192.159 470.515 191.676C470.515 191.205 470.444 190.788 470.302 190.428C470.16 190.067 469.95 189.784 469.672 189.58C469.393 189.375 469.049 189.273 468.64 189.273C468.214 189.273 467.859 189.381 467.575 189.597C467.294 189.812 467.082 190.102 466.94 190.466C466.801 190.83 466.731 191.233 466.731 191.676C466.731 192.131 466.802 192.533 466.944 192.882C467.089 193.229 467.302 193.501 467.584 193.7C467.868 193.896 468.22 193.994 468.64 193.994Z" fill="#667085"/>
<path d="M518.4 188.455C518.349 188.023 518.142 187.688 517.778 187.449C517.415 187.21 516.969 187.091 516.44 187.091C516.054 187.091 515.716 187.153 515.426 187.278C515.139 187.403 514.915 187.575 514.753 187.794C514.594 188.013 514.514 188.261 514.514 188.54C514.514 188.773 514.569 188.973 514.68 189.141C514.794 189.305 514.939 189.443 515.115 189.554C515.291 189.662 515.476 189.751 515.669 189.822C515.862 189.891 516.04 189.946 516.201 189.989L517.088 190.227C517.315 190.287 517.568 190.369 517.846 190.474C518.128 190.58 518.396 190.723 518.652 190.905C518.91 191.084 519.123 191.314 519.291 191.595C519.459 191.876 519.542 192.222 519.542 192.631C519.542 193.102 519.419 193.528 519.172 193.909C518.927 194.29 518.569 194.592 518.098 194.817C517.629 195.041 517.059 195.153 516.389 195.153C515.764 195.153 515.223 195.053 514.765 194.851C514.311 194.649 513.953 194.368 513.692 194.007C513.433 193.646 513.287 193.227 513.253 192.75H514.344C514.372 193.08 514.483 193.352 514.676 193.568C514.872 193.781 515.119 193.94 515.417 194.045C515.719 194.148 516.042 194.199 516.389 194.199C516.792 194.199 517.155 194.134 517.476 194.003C517.797 193.869 518.051 193.685 518.238 193.449C518.426 193.21 518.52 192.932 518.52 192.614C518.52 192.324 518.439 192.088 518.277 191.906C518.115 191.724 517.902 191.577 517.638 191.463C517.373 191.349 517.088 191.25 516.781 191.165L515.707 190.858C515.025 190.662 514.486 190.382 514.088 190.018C513.69 189.655 513.491 189.179 513.491 188.591C513.491 188.102 513.623 187.676 513.888 187.312C514.155 186.946 514.513 186.662 514.961 186.46C515.413 186.256 515.917 186.153 516.474 186.153C517.037 186.153 517.537 186.254 517.974 186.456C518.412 186.655 518.758 186.928 519.014 187.274C519.273 187.621 519.409 188.014 519.423 188.455H518.4ZM523.888 195.136C523.257 195.136 522.713 194.997 522.256 194.719C521.801 194.438 521.45 194.045 521.203 193.543C520.959 193.037 520.837 192.449 520.837 191.778C520.837 191.108 520.959 190.517 521.203 190.006C521.45 189.491 521.794 189.091 522.235 188.804C522.678 188.514 523.195 188.369 523.786 188.369C524.127 188.369 524.463 188.426 524.796 188.54C525.128 188.653 525.431 188.838 525.703 189.094C525.976 189.347 526.193 189.682 526.355 190.099C526.517 190.517 526.598 191.031 526.598 191.642V192.068H521.553V191.199H525.575C525.575 190.83 525.502 190.5 525.354 190.21C525.209 189.92 525.002 189.692 524.732 189.524C524.465 189.357 524.149 189.273 523.786 189.273C523.385 189.273 523.038 189.372 522.746 189.571C522.456 189.767 522.233 190.023 522.077 190.338C521.921 190.653 521.842 190.991 521.842 191.352V191.932C521.842 192.426 521.928 192.845 522.098 193.189C522.271 193.53 522.511 193.79 522.818 193.969C523.125 194.145 523.482 194.233 523.888 194.233C524.152 194.233 524.391 194.196 524.604 194.122C524.82 194.045 525.006 193.932 525.162 193.781C525.318 193.628 525.439 193.437 525.524 193.21L526.496 193.483C526.394 193.812 526.222 194.102 525.98 194.352C525.739 194.599 525.44 194.793 525.085 194.932C524.73 195.068 524.331 195.136 523.888 195.136ZM528.128 197.455V188.455H529.1V189.494H529.219C529.293 189.381 529.395 189.236 529.526 189.06C529.659 188.881 529.85 188.722 530.097 188.582C530.347 188.44 530.685 188.369 531.111 188.369C531.662 188.369 532.148 188.507 532.568 188.783C532.989 189.058 533.317 189.449 533.553 189.955C533.788 190.46 533.906 191.057 533.906 191.744C533.906 192.438 533.788 193.038 533.553 193.547C533.317 194.053 532.99 194.445 532.573 194.723C532.155 194.999 531.673 195.136 531.128 195.136C530.708 195.136 530.371 195.067 530.118 194.928C529.865 194.786 529.671 194.625 529.534 194.446C529.398 194.264 529.293 194.114 529.219 193.994H529.134V197.455H528.128ZM529.117 191.727C529.117 192.222 529.189 192.658 529.334 193.036C529.479 193.411 529.69 193.705 529.969 193.918C530.247 194.128 530.588 194.233 530.992 194.233C531.412 194.233 531.763 194.122 532.044 193.901C532.328 193.676 532.541 193.375 532.683 192.997C532.828 192.616 532.901 192.193 532.901 191.727C532.901 191.267 532.83 190.852 532.688 190.483C532.548 190.111 532.337 189.817 532.053 189.601C531.771 189.382 531.418 189.273 530.992 189.273C530.583 189.273 530.239 189.376 529.96 189.584C529.682 189.788 529.472 190.075 529.33 190.445C529.188 190.811 529.117 191.239 529.117 191.727Z" fill="#667085"/>
<path d="M583.182 190.636C583.182 191.557 583.016 192.352 582.684 193.023C582.352 193.693 581.896 194.21 581.316 194.574C580.736 194.938 580.075 195.119 579.33 195.119C578.586 195.119 577.924 194.938 577.344 194.574C576.765 194.21 576.309 193.693 575.977 193.023C575.644 192.352 575.478 191.557 575.478 190.636C575.478 189.716 575.644 188.92 575.977 188.25C576.309 187.58 576.765 187.062 577.344 186.699C577.924 186.335 578.586 186.153 579.33 186.153C580.075 186.153 580.736 186.335 581.316 186.699C581.896 187.062 582.352 187.58 582.684 188.25C583.016 188.92 583.182 189.716 583.182 190.636ZM582.16 190.636C582.16 189.881 582.033 189.243 581.78 188.723C581.53 188.203 581.191 187.81 580.762 187.543C580.336 187.276 579.859 187.142 579.33 187.142C578.802 187.142 578.323 187.276 577.894 187.543C577.468 187.81 577.129 188.203 576.876 188.723C576.626 189.243 576.501 189.881 576.501 190.636C576.501 191.392 576.626 192.03 576.876 192.55C577.129 193.07 577.468 193.463 577.894 193.73C578.323 193.997 578.802 194.131 579.33 194.131C579.859 194.131 580.336 193.997 580.762 193.73C581.191 193.463 581.53 193.07 581.78 192.55C582.033 192.03 582.16 191.392 582.16 190.636ZM587.482 195.136C586.869 195.136 586.34 194.991 585.897 194.702C585.454 194.412 585.113 194.013 584.874 193.504C584.636 192.996 584.516 192.415 584.516 191.761C584.516 191.097 584.638 190.51 584.883 190.001C585.13 189.49 585.474 189.091 585.914 188.804C586.357 188.514 586.874 188.369 587.465 188.369C587.925 188.369 588.34 188.455 588.709 188.625C589.079 188.795 589.381 189.034 589.617 189.341C589.853 189.648 589.999 190.006 590.056 190.415H589.05C588.974 190.116 588.803 189.852 588.539 189.622C588.278 189.389 587.925 189.273 587.482 189.273C587.09 189.273 586.746 189.375 586.451 189.58C586.158 189.781 585.93 190.067 585.765 190.436C585.603 190.803 585.522 191.233 585.522 191.727C585.522 192.233 585.602 192.673 585.761 193.048C585.923 193.423 586.15 193.714 586.442 193.922C586.738 194.129 587.084 194.233 587.482 194.233C587.744 194.233 587.981 194.188 588.194 194.097C588.407 194.006 588.587 193.875 588.735 193.705C588.883 193.534 588.988 193.33 589.05 193.091H590.056C589.999 193.477 589.859 193.825 589.634 194.135C589.413 194.442 589.119 194.686 588.752 194.868C588.388 195.047 587.965 195.136 587.482 195.136ZM594.373 188.455V189.307H590.981V188.455H594.373ZM591.969 186.886H592.975V193.125C592.975 193.409 593.016 193.622 593.099 193.764C593.184 193.903 593.292 193.997 593.423 194.045C593.556 194.091 593.697 194.114 593.844 194.114C593.955 194.114 594.046 194.108 594.117 194.097C594.188 194.082 594.245 194.071 594.288 194.062L594.492 194.966C594.424 194.991 594.329 195.017 594.207 195.043C594.084 195.071 593.93 195.085 593.742 195.085C593.458 195.085 593.18 195.024 592.907 194.902C592.637 194.78 592.413 194.594 592.234 194.344C592.057 194.094 591.969 193.778 591.969 193.398V186.886Z" fill="#667085"/>
<path d="M643.339 186.273V195H642.316L637.56 188.148H637.475V195H636.418V186.273H637.441L642.214 193.142H642.299V186.273H643.339ZM647.976 195.136C647.385 195.136 646.867 194.996 646.421 194.714C645.978 194.433 645.631 194.04 645.381 193.534C645.134 193.028 645.01 192.437 645.01 191.761C645.01 191.08 645.134 190.484 645.381 189.976C645.631 189.467 645.978 189.072 646.421 188.791C646.867 188.51 647.385 188.369 647.976 188.369C648.567 188.369 649.084 188.51 649.527 188.791C649.973 189.072 650.32 189.467 650.567 189.976C650.817 190.484 650.942 191.08 650.942 191.761C650.942 192.437 650.817 193.028 650.567 193.534C650.32 194.04 649.973 194.433 649.527 194.714C649.084 194.996 648.567 195.136 647.976 195.136ZM647.976 194.233C648.425 194.233 648.794 194.118 649.084 193.888C649.374 193.658 649.588 193.355 649.728 192.98C649.867 192.605 649.936 192.199 649.936 191.761C649.936 191.324 649.867 190.916 649.728 190.538C649.588 190.161 649.374 189.855 649.084 189.622C648.794 189.389 648.425 189.273 647.976 189.273C647.527 189.273 647.158 189.389 646.868 189.622C646.578 189.855 646.364 190.161 646.225 190.538C646.086 190.916 646.016 191.324 646.016 191.761C646.016 192.199 646.086 192.605 646.225 192.98C646.364 193.355 646.578 193.658 646.868 193.888C647.158 194.118 647.527 194.233 647.976 194.233ZM657.595 188.455L655.175 195H654.152L651.731 188.455H652.822L654.629 193.67H654.697L656.504 188.455H657.595Z" fill="#667085"/>
<path d="M702.094 195H699.401V186.273H702.213C703.06 186.273 703.784 186.447 704.386 186.797C704.989 187.143 705.45 187.642 705.771 188.293C706.092 188.94 706.253 189.716 706.253 190.619C706.253 191.528 706.091 192.311 705.767 192.967C705.443 193.621 704.972 194.124 704.352 194.476C703.733 194.825 702.98 195 702.094 195ZM700.457 194.062H702.026C702.747 194.062 703.345 193.923 703.82 193.645C704.294 193.366 704.648 192.97 704.881 192.456C705.114 191.942 705.23 191.33 705.23 190.619C705.23 189.915 705.115 189.308 704.885 188.8C704.655 188.288 704.311 187.896 703.854 187.624C703.396 187.348 702.827 187.21 702.145 187.21H700.457V194.062ZM710.633 195.136C710.003 195.136 709.459 194.997 709.001 194.719C708.547 194.438 708.196 194.045 707.949 193.543C707.704 193.037 707.582 192.449 707.582 191.778C707.582 191.108 707.704 190.517 707.949 190.006C708.196 189.491 708.54 189.091 708.98 188.804C709.423 188.514 709.94 188.369 710.531 188.369C710.872 188.369 711.209 188.426 711.541 188.54C711.874 188.653 712.176 188.838 712.449 189.094C712.722 189.347 712.939 189.682 713.101 190.099C713.263 190.517 713.344 191.031 713.344 191.642V192.068H708.298V191.199H712.321C712.321 190.83 712.247 190.5 712.099 190.21C711.954 189.92 711.747 189.692 711.477 189.524C711.21 189.357 710.895 189.273 710.531 189.273C710.131 189.273 709.784 189.372 709.491 189.571C709.202 189.767 708.979 190.023 708.822 190.338C708.666 190.653 708.588 190.991 708.588 191.352V191.932C708.588 192.426 708.673 192.845 708.844 193.189C709.017 193.53 709.257 193.79 709.564 193.969C709.871 194.145 710.227 194.233 710.633 194.233C710.898 194.233 711.136 194.196 711.349 194.122C711.565 194.045 711.751 193.932 711.908 193.781C712.064 193.628 712.185 193.437 712.27 193.21L713.241 193.483C713.139 193.812 712.967 194.102 712.726 194.352C712.484 194.599 712.186 194.793 711.831 194.932C711.476 195.068 711.077 195.136 710.633 195.136ZM717.533 195.136C716.919 195.136 716.391 194.991 715.947 194.702C715.504 194.412 715.163 194.013 714.925 193.504C714.686 192.996 714.567 192.415 714.567 191.761C714.567 191.097 714.689 190.51 714.933 190.001C715.18 189.49 715.524 189.091 715.964 188.804C716.408 188.514 716.925 188.369 717.516 188.369C717.976 188.369 718.391 188.455 718.76 188.625C719.129 188.795 719.432 189.034 719.668 189.341C719.903 189.648 720.05 190.006 720.106 190.415H719.101C719.024 190.116 718.854 189.852 718.589 189.622C718.328 189.389 717.976 189.273 717.533 189.273C717.141 189.273 716.797 189.375 716.501 189.58C716.209 189.781 715.98 190.067 715.815 190.436C715.653 190.803 715.572 191.233 715.572 191.727C715.572 192.233 715.652 192.673 715.811 193.048C715.973 193.423 716.2 193.714 716.493 193.922C716.788 194.129 717.135 194.233 717.533 194.233C717.794 194.233 718.031 194.188 718.244 194.097C718.457 194.006 718.638 193.875 718.785 193.705C718.933 193.534 719.038 193.33 719.101 193.091H720.106C720.05 193.477 719.909 193.825 719.685 194.135C719.463 194.442 719.169 194.686 718.802 194.868C718.439 195.047 718.016 195.136 717.533 195.136Z" fill="#667085"/>
<g style="mix-blend-mode:multiply" opacity="0.1">
<path d="M17.8612 74.9736L1 77.9167V176H745V42.1667L729.193 47.0547H712.331L704.428 51.6315H693.89C691.079 52.3943 685.248 53.92 684.405 53.92C683.562 53.92 678.082 54.8354 675.448 55.293L652.79 56.6661L639.618 58.4969L618.541 56.6661L607.476 55.293L591.669 58.4969H575.334L561.635 55.293C556.365 54.8354 545.616 53.92 544.773 53.92C543.93 53.92 537.045 53.0046 533.708 52.5469H525.278L505.255 53.92L487.867 55.293L479.963 58.4969L456.252 59.8699L444.133 61.243L430.433 63.5314L417.261 69.0237H411.465L395.657 67.6506L380.377 63.5314L367.204 61.243H359.3L345.601 59.8699L326.105 61.243H307.663L289.221 63.5314L270.779 66.2776L257.079 69.0237L242.326 70.3967L222.303 69.0237L206.496 70.3967L190.688 71.7698L175.935 70.3967L155.912 73.6006L139.051 71.7698L122.19 73.6006H105.856L88.4674 74.9736H70.5524L52.6374 76.3467L35.2493 73.6006L17.8612 74.9736Z" fill="url(#paint0_linear_3_20345)"/>
</g>
<path d="M1 77.9167L17.8612 74.9736L35.2493 73.6006L52.6374 76.3467L70.5524 74.9736H88.4674L105.856 73.6006H122.19L139.051 71.7698L155.912 73.6006L175.935 70.3967L190.688 71.7698L206.496 70.3967L222.303 69.0237L242.326 70.3967L257.079 69.0237L270.779 66.2776L289.221 63.5314L307.663 61.243H326.105L345.601 59.8699L359.3 61.243H367.204L380.377 63.5314L395.657 67.6506L411.465 69.0237H417.261L430.433 63.5314L444.133 61.243L456.252 59.8699L479.963 58.4969L487.867 55.293L505.255 53.92L525.278 52.5469H533.708C537.045 53.0046 543.93 53.92 544.773 53.92C545.616 53.92 556.365 54.8354 561.635 55.293L575.334 58.4969H591.669L607.476 55.293L618.541 56.6661L639.618 58.4969L652.79 56.6661L675.448 55.293C678.082 54.8354 683.562 53.92 684.405 53.92C685.248 53.92 691.079 52.3943 693.889 51.6315H704.428L712.331 47.0547H729.193L745 42.1667" stroke="#7F56D9" stroke-width="2" stroke-linecap="round" stroke-linejoin="round"/>
<path d="M1 113.522L17.8612 111.648L35.2493 110.773L52.6374 112.522L70.5524 111.648H88.4674L105.856 110.773H122.19L139.051 109.607L155.912 110.773L175.935 108.732L190.688 109.607L206.496 108.732L222.303 107.858L242.326 108.732L257.079 107.858L270.779 106.108L289.221 104.359L307.663 102.901H326.105L345.601 102.027L359.3 102.901H367.204L380.377 104.359L395.657 106.983L411.465 107.858H417.261L430.433 104.359L444.133 102.901L456.252 102.027L479.963 101.152L487.867 99.1113L505.255 98.2367L525.278 97.3621H533.708C537.045 97.6536 543.93 98.2367 544.773 98.2367C545.616 98.2367 556.365 98.8198 561.635 99.1113L575.334 101.152H591.669L607.476 99.1113L618.541 99.9859L639.618 101.152L652.79 99.9859L675.448 99.1113C678.082 98.8198 683.562 98.2367 684.405 98.2367C685.248 98.2367 691.079 97.2649 693.89 96.779H704.428L712.331 93.8636H729.193L745 90.75" stroke="#B692F6" stroke-width="2" stroke-linecap="round" stroke-linejoin="round"/>
<defs>
<linearGradient id="paint0_linear_3_20345" x1="373" y1="42.1667" x2="373" y2="170.042" gradientUnits="userSpaceOnUse">
<stop stop-color="#7F56D9"/>
<stop offset="1" stop-color="#7F56D9" stop-opacity="0"/>
</linearGradient>
</defs>
</svg>
